<?xml version="1.0" standalone="no"?>
<!DOCTYPE svg PUBLIC "-//W3C//DTD SVG 20010904//EN"
 "http://www.w3.org/TR/2001/REC-SVG-20010904/DTD/svg10.dtd">
<svg version="1.0" xmlns="http://www.w3.org/2000/svg"
 width="512.000000pt" height="512.000000pt" viewBox="0 0 512.000000 512.000000"
 preserveAspectRatio="xMidYMid meet">
<metadata>
Created by potrace 1.14, written by Peter Selinger 2001-2017
</metadata>
<g transform="translate(0.000000,512.000000) scale(0.100000,-0.100000)"
fill="#000000" stroke="none">
<path d="M2379 5116 c-2 -2 -40 -6 -83 -10 -44 -4 -82 -8 -85 -10 -3 -2 -28
-7 -56 -10 -104 -13 -297 -60 -420 -101 -407 -138 -822 -416 -1097 -735 -26
-30 -57 -66 -69 -80 -43 -50 -160 -219 -212 -306 -184 -306 -307 -680 -345
-1044 -14 -140 -7 -504 12 -615 3 -16 8 -43 10 -60 8 -58 38 -191 61 -275 154
-548 477 -1018 939 -1364 319 -239 733 -415 1111 -471 22 -4 51 -8 65 -11 69
-13 173 -18 345 -19 218 0 314 8 485 41 41 9 86 17 100 20 118 23 380 115 519
182 334 161 617 382 875 681 125 146 291 417 376 616 22 51 80 202 84 220 2 6
6 17 9 25 9 20 59 220 62 247 2 11 6 29 9 40 9 28 19 100 33 228 8 72 10 391
4 480 -2 28 -7 73 -12 100 -4 28 -10 66 -13 85 -2 19 -9 58 -15 85 -6 28 -13
61 -15 75 -39 194 -167 521 -278 710 -35 59 -102 165 -108 170 -3 3 -17 21
-30 40 -105 156 -300 362 -469 499 -366 294 -793 480 -1251 546 -19 3 -53 7
-75 11 -44 6 -460 15 -466 10z"/>
</g>
</svg>
